Coordinates
version=1
nRows=6
nColumns=36
inDegrees=yes

Units are S.I. units (second, meters, Newtons, ...)
Angles are in degrees.

endheader
time	pelvis_tilt	pelvis_list	pelvis_rotation	pelvis_tx	pelvis_ty	pelvis_tz	hip_flexion_r	hip_adduction_r	hip_rotation_r	knee_angle_r	ankle_angle_r	subtalar_angle_r	hip_flexion_l	hip_adduction_l	hip_rotation_l	knee_angle_l	ankle_angle_l	subtalar_angle_l	lumbar_extension	lumbar_bending	lumbar_rotation	arm_flex_r	arm_add_r	arm_rot_r	elbow_flex_r	pro_sup_r	wrist_flex_r	wrist_dev_r	arm_flex_l	arm_add_l	arm_rot_l	elbow_flex_l	pro_sup_l	wrist_flex_l	wrist_dev_l
      4.14000000	      1.43909884	     -1.64624229	      3.49808950	      0.37447484	      0.92005748	     -0.20753425	     -4.17770693	      7.46453000	     -5.67260554	    -13.76885076	     11.01371708	      0.94761002	     26.28316870	      1.19048520	      4.55479623	    -41.89186692	      1.50939193	     -7.47369236	     -7.65977629	      3.74102839	      2.39663436	     -0.81128216	    -21.86526601	     10.51028401	     35.90080489	     86.51662706	      0.00000000	      0.00000000	     -5.86325015	    -13.93863495	     17.37328547	     19.75379727	     86.51662706	      0.00000000	      0.00000000
      4.15000000	      1.61872782	     -1.62892691	      3.18798601	      0.38641124	      0.91868459	     -0.20714091	     -5.44856744	      7.46395831	     -5.67024638	    -13.34301047	     11.56195566	      1.59137098	     26.32698150	      1.11748193	      4.38600726	    -38.37573340	      1.43592541	     -8.38307790	     -7.98522207	      3.69702197	      2.77165019	     -0.27650930	    -22.18521614	     10.62133526	     36.59648869	     86.51662706	      0.00000000	      0.00000000	     -5.89271445	    -13.83868074	     17.26982256	     19.51316848	     86.51662706	      0.00000000	      0.00000000
      4.16000000	      1.78992575	     -1.64109607	      2.88845141	      0.39844394	      0.91716441	     -0.20680649	     -6.68059900	      7.48613755	     -5.62117745	    -12.98011677	     12.08807189	      2.13578808	     26.30332316	      1.01169094	      4.26678174	    -34.79129968	      1.45303263	     -9.08515962	     -8.28706205	      3.68637225	      3.11651045	      0.25112840	    -22.49746699	     10.75907516	     37.23746884	     86.51662706	      0.00000000	      0.00000000	     -5.89726482	    -13.72131129	     17.26612129	     19.19423042	     86.51662706	      0.00000000	      0.00000000
      4.17000000	      1.93822031	     -1.68103733	      2.59759733	      0.41058263	      0.91551755	     -0.20653167	     -7.85626932	      7.53099585	     -5.52890667	    -12.68694391	     12.58942230	      2.57525029	     26.23747680	      0.86979127	      4.17918573	    -31.19460712	      1.58352795	     -9.48753662	     -8.54674150	      3.70681558	      3.43387079	      0.76140420	    -22.79883035	     10.91397534	     37.82465493	     86.51662706	      0.00000000	      0.00000000	     -5.87894728	    -13.58968006	     17.36571693	     18.79723974	     86.51662706	      0.00000000	      0.00000000
      4.18000000	      2.04922885	     -1.74824320	      2.31416890	      0.42284073	      0.91374284	     -0.20631102	     -8.96088431	      7.59761916	     -5.40513183	    -12.46998612	     13.06423981	      2.91750654	     26.15491925	      0.69094807	      4.09617846	    -27.64948648	      1.82725703	     -9.51143179	     -8.74692518	      3.75743884	      3.72503199	      1.24416427	    -23.08683528	     11.07485137	     38.35976224	     86.51662706	      0.00000000	      0.00000000	     -5.83975218	    -13.44574320	     17.57081613	     18.32353063	     86.51662706	      0.00000000	      0.00000000
      4.19000000	      2.11221059	     -1.84238349	      2.03831983	      0.43522340	      0.91182804	     -0.20614329	     -9.98269092	      7.68242591	     -5.26599893	    -12.33661415	     13.51018082	      3.18251207	     26.08123629	      0.47873939	      3.98392526	    -24.22726645	      2.16459054	     -9.10541969	     -8.87436564	      3.83818318	      3.99018583	      1.69001806	    -23.35993524	     11.22948561	     38.84537980	     86.51662706	      0.00000000	      0.00000000	     -5.78125232	    -13.29032536	     17.88152623	     17.77628367	     86.51662706	      0.00000000	      0.00000000
